<?xml version="1.0" encoding="UTF-8"?>
<svg width="100" height="100" viewBox="0 0 100 100" xmlns="http://www.w3.org/2000/svg">
  <defs>
    <linearGradient id="bg-huile" x1="0%" y1="0%" x2="100%" y2="100%">
      <stop offset="0%" style="stop-color:#FFF8E7;stop-opacity:1" />
      <stop offset="100%" style="stop-color:#FFF0D0;stop-opacity:1" />
    </linearGradient>
    <linearGradient id="bottle-huile" x1="0%" y1="0%" x2="100%" y2="100%">
      <stop offset="0%" style="stop-color:#8B5A2B;stop-opacity:1" />
      <stop offset="100%" style="stop-color:#654321;stop-opacity:1" />
    </linearGradient>
    <linearGradient id="oil-huile" x1="0%" y1="0%" x2="0%" y2="100%">
      <stop offset="0%" style="stop-color:#FFD700;stop-opacity:0.8" />
      <stop offset="100%" style="stop-color:#FFA500;stop-opacity:0.9" />
    </linearGradient>
  </defs>

  <circle cx="50" cy="50" r="48" fill="url(#bg-huile)"/>
  <circle cx="50" cy="50" r="45" fill="none" stroke="#DAA520" stroke-width="2" opacity="0.3"/>

  <!-- Bottle -->
  <path d="M42 30 L42 25 Q42 20 50 20 Q58 20 58 25 L58 30" fill="url(#bottle-huile)"/>
  <path d="M38 30 Q35 35 35 50 Q35 75 50 80 Q65 75 65 50 Q65 35 62 30 Z" fill="url(#bottle-huile)" opacity="0.9"/>

  <!-- Oil inside -->
  <path d="M40 40 Q38 50 40 65 Q45 72 50 73 Q55 72 60 65 Q62 50 60 40 Z" fill="url(#oil-huile)"/>

  <!-- Highlight -->
  <path d="M43 45 Q42 55 44 62" stroke="white" stroke-width="2" fill="none" opacity="0.4" stroke-linecap="round"/>

  <!-- Drop -->
  <path d="M50 83 Q47 87 50 90 Q53 87 50 83 Z" fill="#FFD700" opacity="0.8"/>
</svg>