<?xml version="1.0" encoding="UTF-8"?>
<svg width="100" height="100" viewBox="0 0 100 100" xmlns="http://www.w3.org/2000/svg">
  <defs>
    <linearGradient id="bg-vigne-vierge" x1="0%" y1="0%" x2="100%" y2="100%">
      <stop offset="0%" style="stop-color:#f0f9f0;stop-opacity:1" />
      <stop offset="100%" style="stop-color:#e8f5e8;stop-opacity:1" />
    </linearGradient>
    <linearGradient id="ring-vigne-vierge" x1="0%" y1="0%" x2="100%" y2="100%">
      <stop offset="0%" style="stop-color:#8B0000;stop-opacity:0.3" />
      <stop offset="100%" style="stop-color:#DC143C;stop-opacity:0.5" />
    </linearGradient>
    <filter id="shadow-vigne-vierge" x="-20%" y="-20%" width="140%" height="140%">
      <feDropShadow dx="0" dy="2" stdDeviation="3" flood-color="#DC143C" flood-opacity="0.3"/>
    </filter>
  </defs>

  <!-- Background circle -->
  <circle cx="50" cy="50" r="48" fill="url(#bg-vigne-vierge)"/>

  <!-- Decorative ring -->
  <circle cx="50" cy="50" r="45" fill="none" stroke="url(#ring-vigne-vierge)" stroke-width="2"/>

  <!-- Main shape with shadow -->
  <g filter="url(#shadow-vigne-vierge)">
    
    <path d="M30 70 Q40 50 50 55 Q60 60 55 40 Q50 25 60 20" stroke="#228B22" stroke-width="3" fill="none"/>
    <path d="M50 20 L55 35 L70 25 L60 40 L75 45 L55 50 L50 65 L45 50 L25 45 L40 40 L30 25 L45 35 Z" fill="#DC143C" opacity="0.85" transform="scale(0.7) translate(22 20)"/>
  
  </g>
</svg>